<svg width="60" height="60" viewBox="0 0 60 60" fill="none" xmlns="http://www.w3.org/2000/svg">
    <rect width="60" height="60" rx="10" fill="#C4BAA2" fill-opacity="0.5"/>
    <path d="M14.9165 25.2161C14.9165 24.7053 14.9165 24.4498 14.9378 24.2347C15.1434 22.1595 16.785 20.5179 18.8601 20.3123C19.0753 20.291 19.3445 20.291 19.883 20.291C20.0905 20.291 20.1942 20.291 20.2823 20.2857C21.407 20.2176 22.3918 19.5077 22.8121 18.4623C22.845 18.3804 22.8758 18.2881 22.9373 18.1035C22.9989 17.9189 23.0296 17.8266 23.0625 17.7448C23.4828 16.6993 24.4677 15.9895 25.5924 15.9213C25.6805 15.916 25.7778 15.916 25.9723 15.916H33.0273C33.2219 15.916 33.3192 15.916 33.4073 15.9213C34.532 15.9895 35.5168 16.6993 35.9371 17.7448C35.97 17.8266 36.0008 17.9189 36.0623 18.1035C36.1239 18.2881 36.1546 18.3804 36.1875 18.4623C36.6078 19.5077 37.5927 20.2176 38.7174 20.2857C38.8055 20.291 38.9092 20.291 39.1167 20.291C39.6551 20.291 39.9244 20.291 40.1395 20.3123C42.2147 20.5179 43.8562 22.1595 44.0619 24.2347C44.0832 24.4498 44.0832 24.7053 44.0832 25.2161V36.6243C44.0832 39.0746 44.0832 40.2997 43.6063 41.2356C43.1869 42.0588 42.5176 42.7281 41.6944 43.1475C40.7585 43.6243 39.5334 43.6243 37.0832 43.6243H21.9165C19.4663 43.6243 18.2412 43.6243 17.3053 43.1475C16.4821 42.7281 15.8128 42.0588 15.3934 41.2356C14.9165 40.2997 14.9165 39.0746 14.9165 36.6243V25.2161Z" fill="#F1F1F1"/>
    <path d="M29.4998 37.0618C32.7215 37.0618 35.3332 34.4502 35.3332 31.2285C35.3332 28.0069 32.7215 25.3952 29.4998 25.3952C26.2782 25.3952 23.6665 28.0069 23.6665 31.2285C23.6665 34.4502 26.2782 37.0618 29.4998 37.0618Z" fill="#F1F1F1"/>
    <path d="M14.9165 25.2161C14.9165 24.7053 14.9165 24.4498 14.9378 24.2347C15.1434 22.1595 16.785 20.5179 18.8601 20.3123C19.0753 20.291 19.3445 20.291 19.883 20.291C20.0905 20.291 20.1942 20.291 20.2823 20.2857C21.407 20.2176 22.3918 19.5077 22.8121 18.4623C22.845 18.3804 22.8758 18.2881 22.9373 18.1035C22.9989 17.9189 23.0296 17.8266 23.0625 17.7448C23.4828 16.6993 24.4677 15.9895 25.5924 15.9213C25.6805 15.916 25.7778 15.916 25.9723 15.916H33.0273C33.2219 15.916 33.3192 15.916 33.4073 15.9213C34.532 15.9895 35.5168 16.6993 35.9371 17.7448C35.97 17.8266 36.0008 17.9189 36.0623 18.1035C36.1239 18.2881 36.1546 18.3804 36.1875 18.4623C36.6078 19.5077 37.5927 20.2176 38.7174 20.2857C38.8055 20.291 38.9092 20.291 39.1167 20.291C39.6551 20.291 39.9244 20.291 40.1395 20.3123C42.2147 20.5179 43.8562 22.1595 44.0619 24.2347C44.0832 24.4498 44.0832 24.7053 44.0832 25.2161V36.6243C44.0832 39.0746 44.0832 40.2997 43.6063 41.2356C43.1869 42.0588 42.5176 42.7281 41.6944 43.1475C40.7585 43.6243 39.5334 43.6243 37.0832 43.6243H21.9165C19.4663 43.6243 18.2412 43.6243 17.3053 43.1475C16.4821 42.7281 15.8128 42.0588 15.3934 41.2356C14.9165 40.2997 14.9165 39.0746 14.9165 36.6243V25.2161Z" stroke="black" stroke-width="2" stroke-linecap="round" stroke-linejoin="round"/>
    <path d="M29.4998 37.0618C32.7215 37.0618 35.3332 34.4502 35.3332 31.2285C35.3332 28.0069 32.7215 25.3952 29.4998 25.3952C26.2782 25.3952 23.6665 28.0069 23.6665 31.2285C23.6665 34.4502 26.2782 37.0618 29.4998 37.0618Z" stroke="black" stroke-width="2" stroke-linecap="round" stroke-linejoin="round"/>
</svg>
