<svg width="29" height="44" viewBox="0 0 29 44" fill="none" xmlns="http://www.w3.org/2000/svg">
    <path d="M11.4163 37.464H16.5363V39.632H11.4163V37.464ZM15.4963 38.256H12.4643V38.848H15.4963V38.256ZM10.9603 32.824H16.9923V33.624H10.9603V32.824ZM13.9923 33.808C15.5843 33.808 16.4723 34.168 16.4723 34.864C16.4723 35.56 15.5843 35.92 13.9923 35.92C12.4003 35.92 11.5123 35.56 11.5123 34.864C11.5123 34.168 12.4003 33.808 13.9923 33.808ZM13.9923 34.52C13.0723 34.52 12.6483 34.616 12.6483 34.864C12.6483 35.104 13.0723 35.208 13.9923 35.208C14.9123 35.208 15.3283 35.104 15.3283 34.864C15.3283 34.616 14.9123 34.52 13.9923 34.52ZM13.4563 32.248H14.5203V33.392H13.4563V32.248ZM10.6403 36.272H17.3363V37.088H10.6403V36.272ZM13.4563 35.664H14.5203V36.704H13.4563V35.664Z" fill="#BBBBBB"/>
    <path d="M10.875 25.375V16.4333C10.875 15.7566 10.875 15.4182 11.0067 15.1598C11.1225 14.9324 11.3074 14.7476 11.5348 14.6317C11.7932 14.5 12.1316 14.5 12.8083 14.5H16.1917C16.8684 14.5 17.2068 14.5 17.4652 14.6317C17.6926 14.7476 17.8775 14.9324 17.9933 15.1598C18.125 15.4182 18.125 15.7566 18.125 16.4333V25.375M13.313 3.33986L5.11776 9.71397C4.56994 10.1401 4.29603 10.3531 4.0987 10.6199C3.9239 10.8562 3.79369 11.1225 3.71445 11.4056C3.625 11.7251 3.625 12.0721 3.625 12.7661V21.5083C3.625 22.8618 3.625 23.5385 3.8884 24.0555C4.12009 24.5102 4.4898 24.8799 4.94452 25.1116C5.46148 25.375 6.13821 25.375 7.49167 25.375H21.5083C22.8618 25.375 23.5385 25.375 24.0555 25.1116C24.5102 24.8799 24.8799 24.5102 25.1116 24.0555C25.375 23.5385 25.375 22.8618 25.375 21.5083V12.7661C25.375 12.0721 25.375 11.7251 25.2856 11.4056C25.2063 11.1225 25.0761 10.8562 24.9013 10.6199C24.704 10.3531 24.4301 10.1401 23.8822 9.71397L15.687 3.33986C15.2624 3.00968 15.0502 2.84459 14.8158 2.78113C14.609 2.72514 14.391 2.72514 14.1842 2.78113C13.9498 2.84459 13.7376 3.00968 13.313 3.33986Z" stroke="#BBBBBB" stroke-width="2" stroke-linecap="round" stroke-linejoin="round"/>
</svg>
