<svg width="21" height="22" viewBox="0 0 21 22" fill="none" xmlns="http://www.w3.org/2000/svg">
    <path fill-rule="evenodd" clip-rule="evenodd" d="M6.64001 0.633606H14.64C17.9537 0.633606 20.64 3.39738 20.64 6.80668V15.0374C20.64 18.4467 17.9537 21.2105 14.64 21.2105H6.64001C3.32631 21.2105 0.640015 18.4467 0.640015 15.0374V6.80668C0.640015 3.39738 3.32631 0.633606 6.64001 0.633606ZM16.64 3.72014C17.14 3.72014 17.64 4.23457 17.64 4.74899C17.64 5.26341 17.14 5.77783 16.64 5.77783C16.14 5.77783 15.64 5.26341 15.64 4.74899C15.64 4.23457 16.14 3.72014 16.64 3.72014ZM15.64 10.9221C15.64 8.08502 13.3975 5.77783 10.64 5.77783C7.88251 5.77783 5.64001 8.08502 5.64001 10.9221C5.64001 13.7591 7.88251 16.0663 10.64 16.0663C13.3975 16.0663 15.64 13.7591 15.64 10.9221ZM10.64 7.83553C8.98316 7.83553 7.64001 9.21741 7.64001 10.9221C7.64001 12.6267 8.98316 14.0086 10.64 14.0086C12.2969 14.0086 13.64 12.6267 13.64 10.9221C13.64 9.21741 12.2969 7.83553 10.64 7.83553Z" fill="#304659"/>
</svg>
