<svg width="30" height="43" viewBox="0 0 30 43" fill="none" xmlns="http://www.w3.org/2000/svg">
    <path d="M25.375 6.04169L12.0833 6.04169M25.375 22.9584L12.0833 22.9584M25.375 14.5L12.0833 14.5M7.25 6.04169C7.25 7.0427 6.43852 7.85419 5.4375 7.85419C4.43648 7.85419 3.625 7.0427 3.625 6.04169C3.625 5.04067 4.43648 4.22919 5.4375 4.22919C6.43852 4.22919 7.25 5.04067 7.25 6.04169ZM7.25 22.9584C7.25 23.9594 6.43852 24.7709 5.4375 24.7709C4.43648 24.7709 3.625 23.9594 3.625 22.9584C3.625 21.9573 4.43648 21.1459 5.4375 21.1459C6.43852 21.1459 7.25 21.9573 7.25 22.9584ZM7.25 14.5C7.25 15.501 6.43852 16.3125 5.4375 16.3125C4.43648 16.3125 3.625 15.501 3.625 14.5C3.625 13.499 4.43648 12.6875 5.4375 12.6875C6.43852 12.6875 7.25 13.499 7.25 14.5Z" stroke="#BBBBBB" stroke-width="2" stroke-linecap="round" stroke-linejoin="round"/>
    <path d="M2.49725 35.328H3.56925V36.856H2.49725V35.328ZM2.48925 32.688H3.33725V32.856C3.33725 34.096 2.67325 35.176 1.26525 35.552L0.78525 34.736C1.96925 34.424 2.48925 33.648 2.48925 32.856V32.688ZM2.71325 32.688H3.56925V32.856C3.56925 33.616 4.10525 34.368 5.28125 34.672L4.80925 35.488C3.40125 35.128 2.71325 34.064 2.71325 32.856V32.688ZM1.00925 32.176H5.06525V33.016H1.00925V32.176ZM2.49725 31.368H3.56925V32.544H2.49725V31.368ZM5.72125 31.296H6.78525V38.728H5.72125V31.296ZM0.76125 37.352L0.63325 36.488C1.92925 36.488 3.75325 36.472 5.31325 36.24L5.39325 37.016C3.78525 37.328 2.04125 37.344 0.76125 37.352ZM13.0486 31.312H14.1206V36.712H13.0486V31.312ZM9.18463 37.736H14.3046V38.584H9.18463V37.736ZM9.18463 36.192H10.2486V38.176H9.18463V36.192ZM9.69662 31.712H10.5766V32.432C10.5766 33.88 9.91263 35.216 8.47263 35.72L7.93663 34.872C9.17663 34.448 9.69662 33.416 9.69662 32.432V31.712ZM9.91263 31.712H10.7846V32.432C10.7846 33.4 11.2886 34.352 12.5046 34.744L11.9606 35.592C10.5606 35.12 9.91263 33.864 9.91263 32.432V31.712ZM20.424 31.304H21.496V38.712H20.424V31.304ZM15.504 31.984H19.664V32.832H15.504V31.984ZM15.408 37.024L15.304 36.152C16.64 36.152 18.424 36.128 19.952 35.944L20.008 36.72C18.448 36.984 16.744 37.016 15.408 37.024ZM16.144 32.648H17.176V36.384H16.144V32.648ZM17.992 32.648H19.024V36.384H17.992V32.648ZM23.4634 34.72H28.6714V35.568H23.4634V34.72ZM22.6874 36.952H29.3914V37.824H22.6874V36.952ZM23.4634 31.912H28.6154V32.776H24.5194V35.072H23.4634V31.912Z" fill="#BBBBBB"/>
</svg>