<svg width="37" height="43" viewBox="0 0 37 43" fill="none" xmlns="http://www.w3.org/2000/svg">
    <path d="M25.5 8V3M12.5 21V16M23 5.5H28M10 18.5H15M13.5 2L12.7155 3.56892C12.4501 4.09989 12.3173 4.36538 12.14 4.59545C11.9826 4.79959 11.7996 4.98261 11.5954 5.13997C11.3654 5.31731 11.0999 5.45005 10.5689 5.71554L9 6.5L10.5689 7.28446C11.0999 7.54995 11.3654 7.68269 11.5954 7.86003C11.7996 8.01739 11.9826 8.20041 12.14 8.40455C12.3173 8.63462 12.4501 8.9001 12.7155 9.43108L13.5 11L14.2845 9.43108C14.5499 8.9001 14.6827 8.63462 14.86 8.40455C15.0174 8.20041 15.2004 8.01739 15.4046 7.86003C15.6346 7.68269 15.9001 7.54995 16.4311 7.28446L18 6.5L16.4311 5.71554C15.9001 5.45005 15.6346 5.31731 15.4046 5.13997C15.2004 4.98261 15.0174 4.79959 14.86 4.59545C14.6827 4.36538 14.5499 4.0999 14.2845 3.56892L13.5 2ZM24 12L23.0489 13.9022C22.7834 14.4332 22.6506 14.6987 22.4733 14.9288C22.3159 15.1329 22.1329 15.3159 21.9288 15.4733C21.6987 15.6506 21.4332 15.7834 20.9023 16.0489L19 17L20.9023 17.9511C21.4332 18.2166 21.6987 18.3494 21.9288 18.5267C22.1329 18.6841 22.3159 18.8671 22.4733 19.0712C22.6506 19.3013 22.7834 19.5668 23.0489 20.0977L24 22L24.9511 20.0978C25.2166 19.5668 25.3494 19.3013 25.5267 19.0712C25.6841 18.8671 25.8671 18.6841 26.0712 18.5267C26.3013 18.3494 26.5668 18.2166 27.0977 17.9511L29 17L27.0977 16.0489C26.5668 15.7834 26.3013 15.6506 26.0712 15.4733C25.8671 15.3159 25.6841 15.1329 25.5267 14.9288C25.3494 14.6987 25.2166 14.4332 24.9511 13.9023L24 12Z" stroke="#BBBBBB" stroke-width="2" stroke-linecap="round" stroke-linejoin="round"/>
    <path d="M5.50156 31.304H6.57356V38.736H5.50156V31.304ZM0.869563 36.08H1.50956C3.06956 36.08 3.94956 36.048 4.94156 35.864L5.03756 36.736C4.03756 36.936 3.10156 36.968 1.50956 36.968H0.869563V36.08ZM0.869563 31.96H4.44556V32.816H1.92556V36.416H0.869563V31.96ZM9.04494 36.216H14.0929V38.712H13.0369V37.064H9.04494V36.216ZM8.07694 34.816H8.58894C9.64494 34.816 10.3249 34.792 11.1409 34.648L11.2369 35.48C10.4049 35.632 9.67694 35.648 8.58894 35.648H8.07694V34.816ZM8.06894 31.848H10.6769V34.104H9.10894V35.368H8.07694V33.336H9.65294V32.68H8.06894V31.848ZM13.0849 31.304H14.0929V35.912H13.0849V31.304ZM10.9329 33.056H12.3249V33.912H10.9329V33.056ZM11.5969 31.448H12.5889V35.88H11.5969V31.448ZM20.3003 31.296H21.3563V38.728H20.3003V31.296ZM19.0283 33.904H20.4203V34.768H19.0283V33.904ZM15.4763 36.192H16.0683C17.2923 36.192 18.2043 36.176 19.2523 36.008L19.3483 36.856C18.2763 37.024 17.3163 37.056 16.0683 37.056H15.4763V36.192ZM15.4763 31.92H18.9083V32.784H16.5323V36.464H15.4763V31.92ZM16.2923 33.984H18.6523V34.816H16.2923V33.984ZM24.1637 32.536H25.0197V32.808C25.0197 34.064 24.3477 35.168 22.9317 35.552L22.4437 34.72C23.6437 34.4 24.1637 33.608 24.1637 32.808V32.536ZM24.3637 32.536H25.2277V32.808C25.2277 33.544 25.7397 34.296 26.9317 34.6L26.4597 35.416C25.0277 35.056 24.3637 34 24.3637 32.808V32.536ZM22.7077 32.016H26.6837V32.848H22.7077V32.016ZM24.1637 31.28H25.2277V32.4H24.1637V31.28ZM27.2677 31.304H28.3317V35.52H27.2677V31.304ZM28.0357 32.96H29.3157V33.832H28.0357V32.96ZM25.3797 36.192H26.2757V36.368C26.2757 37.52 25.3157 38.456 23.5317 38.688L23.1477 37.88C24.6917 37.696 25.3797 37.008 25.3797 36.368V36.192ZM25.6117 36.192H26.5157V36.368C26.5157 36.984 27.2197 37.696 28.7397 37.896L28.3637 38.704C26.5717 38.472 25.6117 37.488 25.6117 36.368V36.192ZM23.4597 35.84H28.4277V36.68H23.4597V35.84ZM34.9631 31.304H36.0351V38.712H34.9631V31.304ZM32.7791 32.072H33.8351C33.8351 34.336 33.0671 36.192 30.4351 37.464L29.8831 36.616C32.0111 35.592 32.7791 34.248 32.7791 32.264V32.072ZM30.2751 32.072H33.2831V32.912H30.2751V32.072Z" fill="#BBBBBB"/>
</svg>
