<svg width="148" height="41" viewBox="0 0 148 41" fill="none" xmlns="http://www.w3.org/2000/svg">
    <rect x="0.619995" y="0.0927734" width="147" height="40" rx="5" fill="#141416"/>
    <path fill-rule="evenodd" clip-rule="evenodd" d="M54.5377 26.7409H49.1776L47.8903 30.626H45.6199L50.697 16.2523H53.0559L58.1329 30.626H55.8239L54.5377 26.7409ZM49.7327 24.9482H53.9815L51.887 18.643H51.8284L49.7327 24.9482ZM69.0977 25.3867C69.0977 28.6433 67.3925 30.7356 64.8191 30.7356C63.4889 30.8067 62.236 30.0946 61.5933 28.9021H61.5446V34.0928H59.4401V20.1464H61.4771V21.8894H61.5158C62.1871 20.7044 63.4414 19.9926 64.7804 20.0367C67.3825 20.0367 69.0977 22.1392 69.0977 25.3867ZM66.9346 25.3867C66.9346 23.2651 65.8619 21.8702 64.2252 21.8702C62.6173 21.8702 61.5357 23.2944 61.5357 25.3867C61.5357 27.4983 62.6173 28.9123 64.2252 28.9123C65.8619 28.9123 66.9346 27.5276 66.9346 25.3867ZM80.3821 25.3867C80.3821 28.6433 78.6768 30.7356 76.1035 30.7356C74.7733 30.8067 73.5204 30.0946 72.8776 28.9021H72.8289V34.0928H70.7244V20.1464H72.7615V21.8894H72.8002C73.4715 20.7044 74.7258 19.9926 76.0647 20.0367C78.6669 20.0367 80.3821 22.1392 80.3821 25.3867ZM78.219 25.3867C78.219 23.2651 77.1463 21.8702 75.5096 21.8702C73.9017 21.8702 72.8201 23.2944 72.8201 25.3867C72.8201 27.4983 73.9017 28.9123 75.5096 28.9123C77.1463 28.9123 78.219 27.5276 78.219 25.3867ZM87.8402 26.6211C87.9961 28.0465 89.3508 28.9824 91.202 28.9824C92.9759 28.9824 94.252 28.0464 94.252 26.7612C94.252 25.6455 93.4823 24.9775 91.6599 24.5197L89.8374 24.0709C87.2552 23.4334 86.0564 22.1991 86.0564 20.1961C86.0564 17.716 88.1708 16.0126 91.1733 16.0126C94.1447 16.0126 96.1818 17.716 96.2504 20.1961H94.1259C93.9988 18.7616 92.8387 17.8958 91.1434 17.8958C89.4481 17.8958 88.288 18.7718 88.288 20.0469C88.288 21.0631 89.029 21.661 90.8415 22.1188L92.3908 22.5076C95.276 23.205 96.4748 24.3897 96.4748 26.4921C96.4748 29.1813 94.3792 30.8655 91.0461 30.8655C87.9275 30.8655 85.8219 29.2208 85.6859 26.621L87.8402 26.6211ZM101.017 17.6664V20.1464H102.966V21.8498H101.017V27.6271C101.017 28.5246 101.407 28.9429 102.264 28.9429C102.496 28.9387 102.727 28.9221 102.956 28.8931V30.5864C102.571 30.66 102.179 30.6933 101.787 30.6858C99.7118 30.6858 98.9022 29.8889 98.9022 27.8565V21.8498H97.4115V20.1464H98.9022V17.6664H101.017ZM104.095 25.3867C104.095 22.0895 105.995 20.0175 108.958 20.0175C111.931 20.0175 113.822 22.0894 113.822 25.3867C113.822 28.6931 111.941 30.756 108.958 30.756C105.977 30.756 104.095 28.693 104.095 25.3867ZM111.677 25.3867C111.677 23.1249 110.663 21.7899 108.958 21.7899C107.253 21.7899 106.24 23.1351 106.24 25.3867C106.24 27.6576 107.253 28.9824 108.958 28.9824C110.663 28.9824 111.677 27.6576 111.677 25.3867ZM115.557 20.1464H117.564V21.9301H117.613C117.893 20.7818 118.922 19.9916 120.079 20.0367C120.321 20.0359 120.563 20.0628 120.8 20.117V22.129C120.494 22.0334 120.174 21.9895 119.854 21.999C119.236 21.9734 118.637 22.2254 118.215 22.689C117.794 23.1525 117.591 23.7812 117.661 24.4101V30.6259H115.557L115.557 20.1464ZM130.503 27.548C130.22 29.4504 128.407 30.7559 126.088 30.7559C123.105 30.7559 121.254 28.7134 121.254 25.4365C121.254 22.1494 123.115 20.0175 126 20.0175C128.836 20.0175 130.62 22.0092 130.62 25.1867V25.9237H123.379V26.0536C123.311 26.8338 123.575 27.6061 124.102 28.174C124.63 28.7419 125.371 29.0508 126.137 29.022C127.158 29.1198 128.121 28.5204 128.504 27.548L130.503 27.548ZM123.389 24.4203L128.514 24.4203C128.553 23.7192 128.303 23.0337 127.826 22.5288C127.348 22.0239 126.686 21.7455 126 21.7605C125.307 21.7563 124.642 22.0349 124.152 22.5343C123.662 23.0338 123.387 23.7127 123.389 24.4203ZM49.4689 5.43308C50.3624 5.36754 51.2374 5.71498 51.8533 6.37975C52.4692 7.04453 52.761 7.95657 52.6483 8.86485C52.6483 11.0713 51.4817 12.3396 49.4689 12.3396H47.0283V5.43308H49.4689ZM48.0777 11.3629H49.3517C49.9902 11.4019 50.6119 11.1448 51.0442 10.6629C51.4765 10.181 51.6733 9.52572 51.5801 8.87893C51.6665 8.23481 51.4668 7.5849 51.0356 7.10696C50.6044 6.62902 49.9868 6.37306 49.3517 6.40908H48.0777V11.3629ZM53.8338 9.73123C53.7464 8.797 54.1847 7.89287 54.9648 7.39803C55.745 6.90318 56.7322 6.90318 57.5123 7.39803C58.2925 7.89287 58.7307 8.797 58.6433 9.73123C58.7324 10.6665 58.2945 11.5723 57.5137 12.0683C56.7328 12.5642 55.7443 12.5642 54.9635 12.0683C54.1826 11.5723 53.7447 10.6665 53.8338 9.73123ZM57.6082 9.73123C57.6082 8.60144 57.1117 7.94074 56.2402 7.94074C55.3655 7.94074 54.8734 8.60144 54.8734 9.73124C54.8734 10.8701 55.3655 11.5257 56.2402 11.5257C57.1117 11.5257 57.6082 10.8655 57.6082 9.73123ZM65.0364 12.3395H63.9925L62.9386 8.50082H62.8589L61.8095 12.3395H60.7755L59.3699 7.12743H60.3906L61.3041 11.1046H61.3793L62.4276 7.12743H63.3931L64.4414 11.1046H64.5211L65.4301 7.12743H66.4364L65.0364 12.3395ZM67.6186 7.12743H68.5874V7.95542H68.6626C68.9241 7.3458 69.5352 6.97289 70.1843 7.02682C70.6868 6.9882 71.1793 7.18527 71.5227 7.5624C71.8661 7.93952 72.023 8.45577 71.9492 8.96539V12.3395H70.9429V9.2237C70.9429 8.3861 70.5868 7.96955 69.8425 7.96955C69.5016 7.95333 69.1708 8.09008 68.9368 8.34395C68.7027 8.59783 68.5889 8.94351 68.625 9.29038V12.3395H67.6186L67.6186 7.12743ZM73.5528 5.09277H74.5591V12.3395H73.5528V5.09277ZM75.958 9.73123C75.8707 8.79694 76.309 7.89279 77.0892 7.39794C77.8694 6.90309 78.8567 6.90309 79.6369 7.39794C80.4171 7.89279 80.8554 8.79694 80.7681 9.73123C80.857 10.6665 80.4191 11.5724 79.6382 12.0682C78.8573 12.5641 77.8688 12.5641 77.0879 12.0682C76.307 11.5724 75.8691 10.6665 75.958 9.73123ZM79.7324 9.73123C79.7324 8.60144 79.2359 7.94074 78.3644 7.94074C77.4897 7.94074 76.9976 8.60144 76.9976 9.73124C76.9976 10.8701 77.4897 11.5257 78.3644 11.5257C79.2359 11.5257 79.7324 10.8655 79.7324 9.73123ZM81.8275 10.8655C81.8275 9.92735 82.5109 9.38647 83.7241 9.3096L85.1053 9.22822V8.77834C85.1053 8.22785 84.7492 7.917 84.0614 7.917C83.4996 7.917 83.1103 8.12782 82.9986 8.49632H82.0243C82.1272 7.60107 82.9511 7.02685 84.1078 7.02685C85.3862 7.02685 86.1072 7.67736 86.1072 8.77834V12.3395H85.1385V11.6071H85.0589C84.7298 12.142 84.1447 12.4546 83.5272 12.4254C83.0943 12.4714 82.6626 12.3281 82.3388 12.0309C82.0149 11.7338 81.8292 11.3104 81.8275 10.8655ZM85.1053 10.4202V9.98443L83.8601 10.0658C83.1579 10.1139 82.8394 10.358 82.8394 10.8175C82.8394 11.2866 83.2375 11.5596 83.7849 11.5596C84.109 11.5931 84.4325 11.4908 84.6814 11.276C84.9303 11.0612 85.0833 10.7524 85.1053 10.4202ZM87.4299 9.73123C87.4299 8.0843 88.2582 7.04097 89.5465 7.04097C90.1971 7.01033 90.8064 7.36663 91.1102 7.95539H91.1854V5.09277H92.1918V12.3395H91.2275V11.516H91.1478C90.821 12.0999 90.2042 12.4502 89.5465 12.4254C88.2493 12.4255 87.4299 11.3821 87.4299 9.73123ZM88.4694 9.73123C88.4694 10.8367 88.9792 11.5019 89.8319 11.5019C90.6801 11.5019 91.2043 10.8271 91.2043 9.73576C91.2043 8.64948 90.6746 7.96504 89.8319 7.96504C88.9847 7.96504 88.4694 8.63478 88.4694 9.73123ZM96.3554 9.73123C96.268 8.797 96.7062 7.89287 97.4864 7.39803C98.2666 6.90318 99.2537 6.90318 100.034 7.39803C100.814 7.89287 101.252 8.797 101.165 9.73123C101.254 10.6665 100.816 11.5723 100.035 12.0683C99.2544 12.5642 98.2659 12.5642 97.485 12.0683C96.7042 11.5723 96.2663 10.6665 96.3554 9.73123ZM100.13 9.73123C100.13 8.60144 99.6332 7.94074 98.7618 7.94074C97.8871 7.94074 97.395 8.60144 97.395 9.73124C97.395 10.8701 97.8871 11.5257 98.7618 11.5257C99.6332 11.5257 100.13 10.8655 100.13 9.73123ZM102.515 7.12743H103.484V7.95542H103.559C103.821 7.3458 104.432 6.97289 105.081 7.02682C105.583 6.9882 106.076 7.18527 106.419 7.5624C106.763 7.93952 106.92 8.45577 106.846 8.96539V12.3395H105.839V9.2237C105.839 8.3861 105.483 7.96955 104.739 7.96955C104.398 7.95333 104.067 8.09008 103.833 8.34395C103.599 8.59783 103.485 8.94351 103.521 9.29038V12.3395H102.515V7.12743ZM112.532 5.82978V7.15117H113.637V8.0176H112.532V10.6977C112.532 11.2437 112.752 11.4827 113.253 11.4827C113.381 11.4823 113.51 11.4744 113.637 11.459V12.3158C113.456 12.3488 113.273 12.3664 113.09 12.3684C111.97 12.3684 111.525 11.9659 111.525 10.9611V8.01756H110.715V7.15113H111.525V5.82978H112.532ZM115.012 5.09277H116.009V7.96503H116.089C116.363 7.35008 116.985 6.97669 117.644 7.03135C118.143 7.00356 118.629 7.20497 118.969 7.58072C119.308 7.95648 119.466 8.46744 119.4 8.97444V12.3395H118.392V9.2282C118.392 8.39568 118.013 7.97406 117.302 7.97406C116.952 7.94471 116.607 8.07481 116.359 8.32957C116.112 8.58434 115.987 8.9378 116.018 9.29545V12.3395H115.012L115.012 5.09277ZM125.267 10.9322C124.985 11.9154 124.054 12.5506 123.058 12.4401C122.378 12.4585 121.725 12.1704 121.271 11.6523C120.817 11.1343 120.609 10.4386 120.702 9.74988C120.612 9.05925 120.819 8.36246 121.27 7.84002C121.721 7.31757 122.372 7.02089 123.054 7.02684C124.472 7.02684 125.328 8.01765 125.328 9.65434V10.0133H121.728V10.0709C121.696 10.4577 121.825 10.8402 122.083 11.1245C122.342 11.4088 122.706 11.5684 123.086 11.5641C123.578 11.6245 124.057 11.3749 124.299 10.9322L125.267 10.9322ZM121.728 9.25252H124.303C124.329 8.89879 124.207 8.55044 123.968 8.2933C123.729 8.03617 123.395 7.89417 123.048 7.9023C122.696 7.89779 122.358 8.03861 122.109 8.29283C121.861 8.54705 121.723 8.89311 121.728 9.25252ZM34.6541 19.7438C34.6568 22.1721 36.1149 24.3635 38.3574 25.3094C37.9262 26.7067 37.276 28.0272 36.4312 29.2219C35.2966 30.9146 34.107 32.5683 32.2188 32.5988C30.3842 32.6411 29.7676 31.5221 27.6633 31.5221C25.5393 31.5221 24.8822 32.5683 23.1226 32.6411C21.3244 32.7075 19.9502 30.8345 18.7743 29.1577C16.4241 25.7334 14.5941 19.5075 17.0475 15.2712C18.1996 13.2065 20.3538 11.8964 22.7218 11.8201C24.5216 11.7831 26.1929 13.0323 27.2995 13.0323C28.385 13.0323 30.4502 11.538 32.5805 11.761C34.6053 11.8242 36.4817 12.8358 37.6436 14.4908C35.8101 15.615 34.6819 17.5975 34.6541 19.7438ZM31.1888 9.50895C30.19 10.7479 28.6766 11.4615 27.0827 11.4451C26.9813 9.89172 27.5033 8.36183 28.5336 7.19244C29.577 6.0072 31.0299 5.25752 32.6027 5.09277C32.7255 6.69222 32.2183 8.27643 31.1888 9.50895Z" fill="#F5F9FC"/>
</svg>
