<svg width="44" height="54" viewBox="0 0 44 54" fill="none" xmlns="http://www.w3.org/2000/svg" xmlns:xlink="http://www.w3.org/1999/xlink">
<path d="M40.25,51.75L39.258,53.486C39.877,53.84 40.637,53.838 41.254,53.48C41.87,53.122 42.25,52.463 42.25,51.75L40.25,51.75ZM1.75,51.75L-0.25,51.75C-0.25,52.463 0.13,53.122 0.746,53.48C1.363,53.838 2.123,53.84 2.742,53.486L1.75,51.75ZM21,40.75L21.992,39.014C21.377,38.662 20.623,38.662 20.008,39.014L21,40.75ZM35.745,3.149L36.653,1.367L35.745,3.149ZM39.351,6.755L41.133,5.847L39.351,6.755ZM6.255,3.149L5.347,1.367L6.255,3.149ZM2.649,6.755L0.867,5.847L2.649,6.755ZM14.164,21.461C13.383,20.68 12.117,20.68 11.336,21.461C10.555,22.242 10.555,23.508 11.336,24.289L14.164,21.461ZM18.25,28.375L16.836,29.789C17.617,30.57 18.883,30.57 19.664,29.789L18.25,28.375ZM32.039,17.414C32.82,16.633 32.82,15.367 32.039,14.586C31.258,13.805 29.992,13.805 29.211,14.586L32.039,17.414ZM14.95,4.25L27.05,4.25L27.05,0.25L14.95,0.25L14.95,4.25ZM38.25,15.45L38.25,51.75L42.25,51.75L42.25,15.45L38.25,15.45ZM3.75,51.75L3.75,15.45L-0.25,15.45L-0.25,51.75L3.75,51.75ZM41.242,50.014L21.992,39.014L20.008,42.486L39.258,53.486L41.242,50.014ZM20.008,39.014L0.758,50.014L2.742,53.486L21.992,42.486L20.008,39.014ZM27.05,4.25C29.393,4.25 31.03,4.252 32.306,4.356C33.558,4.458 34.284,4.649 34.837,4.931L36.653,1.367C35.442,0.75 34.131,0.492 32.631,0.369C31.155,0.248 29.327,0.25 27.05,0.25L27.05,4.25ZM42.25,15.45C42.25,13.173 42.252,11.345 42.131,9.869C42.008,8.369 41.75,7.058 41.133,5.847L37.569,7.663C37.851,8.216 38.042,8.942 38.144,10.194C38.248,11.47 38.25,13.107 38.25,15.45L42.25,15.45ZM34.837,4.931C36.013,5.53 36.97,6.487 37.569,7.663L41.133,5.847C40.15,3.918 38.582,2.35 36.653,1.367L34.837,4.931ZM14.95,0.25C12.673,0.25 10.845,0.248 9.369,0.369C7.869,0.492 6.558,0.75 5.347,1.367L7.163,4.931C7.716,4.649 8.442,4.458 9.694,4.356C10.97,4.252 12.607,4.25 14.95,4.25L14.95,0.25ZM3.75,15.45C3.75,13.107 3.752,11.47 3.856,10.194C3.958,8.942 4.149,8.216 4.431,7.663L0.867,5.847C0.25,7.058 -0.008,8.369 -0.131,9.869C-0.252,11.345 -0.25,13.173 -0.25,15.45L3.75,15.45ZM5.347,1.367C3.418,2.35 1.85,3.918 0.867,5.847L4.431,7.663C5.03,6.487 5.987,5.53 7.163,4.931L5.347,1.367ZM11.336,24.289L16.836,29.789L19.664,26.961L14.164,21.461L11.336,24.289ZM19.664,29.789L32.039,17.414L29.211,14.586L16.836,26.961L19.664,29.789Z" fill="#000000"/>
</svg>
