<svg width="220" height="220" viewBox="0 0 220 220" fill="none" xmlns="http://www.w3.org/2000/svg" xmlns:xlink="http://www.w3.org/1999/xlink">
<path d="M220,110C220,170.751 170.751,220 110,220C49.249,220 0,170.751 0,110C0,49.249 49.249,0 110,0C170.751,0 220,49.249 220,110Z" fill="#BBBBBB"/>
<path d="M94.198,91.356L94.613,91.699L131.704,126.741C132.19,127.2 132.555,127.761 132.768,128.378C132.982,128.995 133.039,129.651 132.934,130.292C132.83,130.934 132.566,131.543 132.166,132.071C131.765,132.598 131.238,133.029 130.628,133.328L130.121,133.535L84.731,149.34C76.199,152.314 67.89,144.735 70.482,136.686L70.7,136.083L87.423,93.194C87.644,92.626 87.995,92.11 88.45,91.685C88.905,91.259 89.454,90.932 90.057,90.729C90.661,90.526 91.304,90.45 91.942,90.508C92.58,90.566 93.196,90.755 93.748,91.063L94.198,91.356ZM93.263,102.102L78.904,138.941C78.771,139.284 78.736,139.654 78.803,140.013C78.871,140.373 79.038,140.709 79.287,140.988C79.537,141.267 79.86,141.478 80.225,141.6C80.589,141.722 80.981,141.751 81.361,141.683L81.711,141.588L120.689,128.017L93.263,102.102ZM133.671,109.296C137.652,109.495 143.111,110.288 147.858,112.98C148.82,113.519 149.527,114.387 149.833,115.403C150.139,116.42 150.021,117.509 149.503,118.446C148.985,119.382 148.106,120.096 147.048,120.439C145.99,120.782 144.833,120.729 143.815,120.29L143.361,120.063C140.38,118.37 136.568,117.709 133.212,117.544C131.828,117.472 130.442,117.477 129.059,117.56L127.678,117.688C126.538,117.827 125.386,117.536 124.471,116.878C123.556,116.22 122.953,115.248 122.791,114.173C122.63,113.097 122.923,112.005 123.608,111.132C124.293,110.26 125.314,109.677 126.45,109.511C128.844,109.219 131.262,109.146 133.671,109.292M142.521,97.786C143.635,97.789 144.706,98.192 145.515,98.915C146.324,99.638 146.811,100.626 146.876,101.676C146.94,102.727 146.578,103.761 145.863,104.568C145.148,105.375 144.134,105.893 143.028,106.017L142.521,106.046L139.427,106.046C138.313,106.044 137.242,105.64 136.433,104.917C135.624,104.194 135.137,103.207 135.073,102.156C135.008,101.106 135.37,100.071 136.085,99.265C136.8,98.458 137.814,97.94 138.92,97.815L139.427,97.786L142.521,97.786ZM128.614,94.619C129.366,95.33 129.818,96.276 129.885,97.28C129.952,98.283 129.629,99.276 128.976,100.07L128.614,100.458L123.98,104.84C123.196,105.589 122.138,106.026 121.023,106.061C119.909,106.097 118.822,105.729 117.986,105.032C117.149,104.336 116.626,103.363 116.523,102.314C116.42,101.265 116.746,100.219 117.433,99.389L117.796,99.001L122.429,94.623C122.835,94.239 123.317,93.934 123.847,93.726C124.378,93.519 124.947,93.412 125.521,93.412C126.096,93.412 126.664,93.519 127.195,93.726C127.726,93.934 128.208,94.235 128.614,94.619ZM117.306,72.875C119.264,78.434 118.215,84.521 116.992,88.775C116.259,91.428 115.249,94.005 113.976,96.469C113.458,97.449 112.55,98.195 111.45,98.542C110.35,98.89 109.15,98.81 108.112,98.321C107.075,97.832 106.285,96.974 105.918,95.935C105.55,94.896 105.634,93.761 106.152,92.781C107.169,90.802 107.974,88.732 108.556,86.603C109.548,83.166 110.046,79.437 109.282,76.381L109.015,75.489C108.824,74.972 108.744,74.425 108.78,73.879C108.815,73.333 108.964,72.8 109.219,72.309C109.475,71.818 109.831,71.38 110.267,71.02C110.702,70.66 111.21,70.385 111.759,70.212C112.308,70.039 112.888,69.971 113.465,70.011C114.042,70.052 114.605,70.2 115.122,70.448C115.638,70.695 116.097,71.037 116.472,71.454C116.847,71.871 117.13,72.354 117.306,72.875ZM140.974,82.943C141.794,83.718 142.254,84.768 142.254,85.863C142.254,86.958 141.794,88.009 140.974,88.783L137.884,91.703C137.481,92.097 136.999,92.412 136.465,92.628C135.932,92.845 135.358,92.959 134.778,92.964C134.198,92.968 133.622,92.864 133.085,92.656C132.548,92.449 132.06,92.142 131.65,91.754C131.239,91.366 130.915,90.905 130.695,90.398C130.475,89.89 130.364,89.346 130.37,88.798C130.375,88.25 130.495,87.708 130.724,87.204C130.953,86.7 131.286,86.244 131.704,85.863L134.794,82.943C135.614,82.169 136.725,81.734 137.884,81.734C139.043,81.734 140.155,82.169 140.974,82.943Z" clip-rule="evenodd" fill-rule="evenodd" fill="#FFFFFF"/>
</svg>
