<svg width="21" height="22" viewBox="0 0 21 22" fill="none" xmlns="http://www.w3.org/2000/svg">
    <path fill-rule="evenodd" clip-rule="evenodd" d="M18.64 0.633606H2.64001C1.53545 0.633606 0.640015 1.55487 0.640015 2.6913V19.1528C0.640015 20.2893 1.53545 21.2105 2.64001 21.2105H18.64C19.7446 21.2105 20.64 20.2893 20.64 19.1528V2.6913C20.64 1.55487 19.7446 0.633606 18.64 0.633606ZM4.64001 5.3293C4.64001 6.21766 5.34033 6.93939 6.20639 6.93939C7.06972 6.93939 7.77185 6.21766 7.77185 5.3293C7.77185 4.44188 7.06972 3.72014 6.20639 3.72014C5.34124 3.72014 4.64001 4.44094 4.64001 5.3293ZM4.89045 17.0951H7.57697V8.20968H4.89045V17.0951ZM17.64 17.0951H14.9553V12.7741C14.9553 11.7435 14.9371 10.4179 13.5592 10.4179C12.1613 10.4179 11.9464 11.5403 11.9464 12.6992V17.0951H9.26173V8.20968H11.839V9.4238H11.8754C12.2342 8.72547 13.1103 7.98876 14.4171 7.98876C17.1373 7.98876 17.64 9.82913 17.64 12.2218V17.0951Z" fill="#304659"/>
</svg>
