<svg width="21" height="22" viewBox="0 0 21 22" fill="none" xmlns="http://www.w3.org/2000/svg">
    <path fill-rule="evenodd" clip-rule="evenodd" d="M18.64 0.633606H2.64001C1.53545 0.633606 0.640015 1.55487 0.640015 2.6913V19.1528C0.640015 20.2893 1.53545 21.2105 2.64001 21.2105H10.64V13.4639H7.64001V10.5589H10.64V8.99897C10.64 6.04558 12.1297 4.74899 14.565 4.74899C15.7084 4.74899 16.3236 4.83276 16.6225 4.87345L16.64 4.87584V7.65396H14.979C13.9453 7.65396 13.64 8.20397 13.64 9.31755V10.5589H16.6141L16.2029 13.4639H13.64V21.2105H18.64C19.7446 21.2105 20.64 20.2893 20.64 19.1528V2.6913C20.64 1.55487 19.7446 0.633606 18.64 0.633606Z" fill="#304659"/>
</svg>
