<svg width="72" height="68" viewBox="0 0 72 68" fill="none" xmlns="http://www.w3.org/2000/svg" xmlns:xlink="http://www.w3.org/1999/xlink">
<path d="M71.333,34.333C71.333,33.229 70.438,32.333 69.333,32.333C68.229,32.333 67.333,33.229 67.333,34.333L71.333,34.333ZM37.667,8C38.771,8 39.667,7.105 39.667,6C39.667,4.895 38.771,4 37.667,4L37.667,8ZM4.12,13.28L2.338,12.372L2.338,12.372L4.12,13.28ZM9.947,7.453L9.039,5.671L9.039,5.671L9.947,7.453ZM62.053,64.547L61.145,62.765L61.145,62.765L62.053,64.547ZM67.88,58.72L66.098,57.812L66.098,57.812L67.88,58.72ZM9.947,64.547L10.855,62.765L10.855,62.765L9.947,64.547ZM4.12,58.72L5.902,57.812L5.902,57.812L4.12,58.72ZM57.333,22.667C57.333,23.771 58.229,24.667 59.333,24.667C60.438,24.667 61.333,23.771 61.333,22.667L57.333,22.667ZM61.333,2.667C61.333,1.562 60.438,0.667 59.333,0.667C58.229,0.667 57.333,1.562 57.333,2.667L61.333,2.667ZM49.333,10.667C48.229,10.667 47.333,11.562 47.333,12.667C47.333,13.771 48.229,14.667 49.333,14.667L49.333,10.667ZM69.333,14.667C70.438,14.667 71.333,13.771 71.333,12.667C71.333,11.562 70.438,10.667 69.333,10.667L69.333,14.667ZM47.333,36C47.333,42.259 42.259,47.333 36,47.333L36,51.333C44.468,51.333 51.333,44.468 51.333,36L47.333,36ZM36,47.333C29.741,47.333 24.667,42.259 24.667,36L20.667,36C20.667,44.468 27.532,51.333 36,51.333L36,47.333ZM24.667,36C24.667,29.741 29.741,24.667 36,24.667L36,20.667C27.532,20.667 20.667,27.532 20.667,36L24.667,36ZM36,24.667C42.259,24.667 47.333,29.741 47.333,36L51.333,36C51.333,27.532 44.468,20.667 36,20.667L36,24.667ZM24,68L48,68L48,64L24,64L24,68ZM0.667,27.333L0.667,44.667L4.667,44.667L4.667,27.333L0.667,27.333ZM71.333,44.667L71.333,34.333L67.333,34.333L67.333,44.667L71.333,44.667ZM37.667,4L24,4L24,8L37.667,8L37.667,4ZM4.667,27.333C4.667,23.567 4.668,20.862 4.842,18.739C5.013,16.639 5.343,15.285 5.902,14.188L2.338,12.372C1.444,14.127 1.047,16.066 0.855,18.413C0.665,20.737 0.667,23.633 0.667,27.333L4.667,27.333ZM24,4C20.299,4 17.404,3.998 15.08,4.188C12.733,4.38 10.794,4.777 9.039,5.671L10.855,9.235C11.952,8.676 13.306,8.347 15.406,8.175C17.529,8.002 20.233,8 24,8L24,4ZM5.902,14.188C6.989,12.056 8.722,10.322 10.855,9.235L9.039,5.671C6.154,7.141 3.808,9.487 2.338,12.372L5.902,14.188ZM48,68C51.701,68 54.596,68.001 56.92,67.812C59.267,67.62 61.206,67.223 62.961,66.329L61.145,62.765C60.048,63.324 58.694,63.653 56.594,63.825C54.471,63.998 51.767,64 48,64L48,68ZM67.333,44.667C67.333,48.433 67.332,51.138 67.158,53.261C66.987,55.361 66.657,56.715 66.098,57.812L69.662,59.628C70.556,57.873 70.953,55.934 71.145,53.587C71.335,51.263 71.333,48.367 71.333,44.667L67.333,44.667ZM62.961,66.329C65.846,64.859 68.192,62.513 69.662,59.628L66.098,57.812C65.011,59.944 63.278,61.678 61.145,62.765L62.961,66.329ZM24,64C20.233,64 17.529,63.998 15.406,63.825C13.306,63.653 11.952,63.324 10.855,62.765L9.039,66.329C10.794,67.223 12.733,67.62 15.08,67.812C17.404,68.001 20.299,68 24,68L24,64ZM0.667,44.667C0.667,48.367 0.665,51.263 0.855,53.587C1.047,55.934 1.444,57.873 2.338,59.628L5.902,57.812C5.343,56.715 5.013,55.361 4.842,53.261C4.668,51.138 4.667,48.433 4.667,44.667L0.667,44.667ZM10.855,62.765C8.722,61.678 6.989,59.944 5.902,57.812L2.338,59.628C3.808,62.513 6.154,64.859 9.039,66.329L10.855,62.765ZM61.333,22.667L61.333,2.667L57.333,2.667L57.333,22.667L61.333,22.667ZM49.333,14.667L69.333,14.667L69.333,10.667L49.333,10.667L49.333,14.667Z" fill="#FFFFFF"/>
</svg>
