<svg width="21" height="22" viewBox="0 0 21 22" fill="none" xmlns="http://www.w3.org/2000/svg">
    <path fill-rule="evenodd" clip-rule="evenodd" d="M18.64 0.633606H2.64001C1.53545 0.633606 0.640015 1.55487 0.640015 2.6913V19.1528C0.640015 20.2893 1.53545 21.2105 2.64001 21.2105H18.64C19.7446 21.2105 20.64 20.2893 20.64 19.1528V2.6913C20.64 1.55487 19.7446 0.633606 18.64 0.633606ZM15.9902 7.05295C16.5712 6.98385 17.1247 6.83066 17.64 6.60302C17.255 7.17561 16.7677 7.67856 16.2061 8.08189C16.2115 8.20455 16.2142 8.32774 16.2142 8.45147C16.2142 12.2271 13.326 16.5807 8.04285 16.5807C6.42052 16.5807 4.91127 16.1078 3.64001 15.2973C3.86508 15.3241 4.09392 15.3375 4.32545 15.3375C5.67155 15.3375 6.90997 14.8806 7.89262 14.1141C6.6359 14.0911 5.57517 13.2646 5.20957 12.1296C5.38456 12.1623 5.56494 12.1805 5.74963 12.1805C6.01185 12.1805 6.26599 12.1457 6.50667 12.0804C5.19234 11.8184 4.20269 10.6636 4.20269 9.27902V9.24313C4.58982 9.45685 5.03296 9.5854 5.50356 9.6004C4.73305 9.08834 4.22638 8.21365 4.22638 7.22274C4.22638 6.69836 4.36799 6.20772 4.61459 5.78565C6.03177 7.51466 8.14784 8.65233 10.5347 8.77124C10.4863 8.56288 10.4604 8.34435 10.4604 8.12045C10.4604 6.54303 11.7462 5.26341 13.3325 5.26341C14.1585 5.26341 14.9047 5.6105 15.4286 6.16595C16.0834 6.03739 16.6983 5.79958 17.2529 5.47231C17.0386 6.1397 16.5836 6.69943 15.9902 7.05295Z" fill="#304659"/>
</svg>
