<svg width="29" height="29" viewBox="0 0 29 29" fill="none" xmlns="http://www.w3.org/2000/svg">
    <path d="M12.687 16.3126L25.3745 3.62509M12.8411 16.709L16.0168 24.8749C16.2965 25.5943 16.4364 25.954 16.6379 26.059C16.8127 26.15 17.0208 26.1502 17.1956 26.0593C17.3973 25.9545 17.5376 25.595 17.8182 24.876L25.7815 4.46995C26.0349 3.82086 26.1615 3.49631 26.0922 3.28893C26.0321 3.10883 25.8907 2.96749 25.7106 2.90732C25.5032 2.83804 25.1787 2.9647 24.5296 3.218L4.12357 11.1813C3.40452 11.4619 3.045 11.6022 2.94023 11.8039C2.8494 11.9787 2.84952 12.1869 2.94055 12.3616C3.04557 12.5632 3.40525 12.703 4.12463 12.9828L12.2906 16.1584C12.4366 16.2152 12.5096 16.2436 12.5711 16.2875C12.6256 16.3263 12.6732 16.374 12.7121 16.4285C12.7559 16.49 12.7843 16.563 12.8411 16.709Z" stroke="white" stroke-width="2" stroke-linecap="round" stroke-linejoin="round"/>
</svg>