<svg width="44" height="54" viewBox="0 0 44 54" fill="none" xmlns="http://www.w3.org/2000/svg" xmlns:xlink="http://www.w3.org/1999/xlink">
<path d="M40.25,51.75L39.258,53.486C39.877,53.84 40.637,53.838 41.254,53.48C41.87,53.122 42.25,52.463 42.25,51.75L40.25,51.75ZM1.75,51.75L-0.25,51.75C-0.25,52.463 0.13,53.122 0.746,53.48C1.363,53.838 2.123,53.84 2.742,53.486L1.75,51.75ZM21,40.75L21.992,39.014C21.377,38.662 20.623,38.662 20.008,39.014L21,40.75ZM35.745,3.149L36.653,1.367L35.745,3.149ZM39.351,6.755L41.133,5.847L39.351,6.755ZM6.255,3.149L5.347,1.367L6.255,3.149ZM2.649,6.755L0.867,5.847L2.649,6.755ZM19,29.75C19,30.855 19.895,31.75 21,31.75C22.105,31.75 23,30.855 23,29.75L19,29.75ZM23,13.25C23,12.145 22.105,11.25 21,11.25C19.895,11.25 19,12.145 19,13.25L23,13.25ZM12.75,19.5C11.645,19.5 10.75,20.395 10.75,21.5C10.75,22.605 11.645,23.5 12.75,23.5L12.75,19.5ZM29.25,23.5C30.355,23.5 31.25,22.605 31.25,21.5C31.25,20.395 30.355,19.5 29.25,19.5L29.25,23.5ZM14.95,4.25L27.05,4.25L27.05,0.25L14.95,0.25L14.95,4.25ZM38.25,15.45L38.25,51.75L42.25,51.75L42.25,15.45L38.25,15.45ZM3.75,51.75L3.75,15.45L-0.25,15.45L-0.25,51.75L3.75,51.75ZM41.242,50.014L21.992,39.014L20.008,42.486L39.258,53.486L41.242,50.014ZM20.008,39.014L0.758,50.014L2.742,53.486L21.992,42.486L20.008,39.014ZM27.05,4.25C29.393,4.25 31.03,4.252 32.306,4.356C33.558,4.458 34.284,4.649 34.837,4.931L36.653,1.367C35.442,0.75 34.131,0.492 32.631,0.369C31.155,0.248 29.327,0.25 27.05,0.25L27.05,4.25ZM42.25,15.45C42.25,13.173 42.252,11.345 42.131,9.869C42.008,8.369 41.75,7.058 41.133,5.847L37.569,7.663C37.851,8.216 38.042,8.942 38.144,10.194C38.248,11.47 38.25,13.107 38.25,15.45L42.25,15.45ZM34.837,4.931C36.013,5.53 36.97,6.487 37.569,7.663L41.133,5.847C40.15,3.918 38.582,2.35 36.653,1.367L34.837,4.931ZM14.95,0.25C12.673,0.25 10.845,0.248 9.369,0.369C7.869,0.492 6.558,0.75 5.347,1.367L7.163,4.931C7.716,4.649 8.442,4.458 9.694,4.356C10.97,4.252 12.607,4.25 14.95,4.25L14.95,0.25ZM3.75,15.45C3.75,13.107 3.752,11.47 3.856,10.194C3.958,8.942 4.149,8.216 4.431,7.663L0.867,5.847C0.25,7.058 -0.008,8.369 -0.131,9.869C-0.252,11.345 -0.25,13.173 -0.25,15.45L3.75,15.45ZM5.347,1.367C3.418,2.35 1.85,3.918 0.867,5.847L4.431,7.663C5.03,6.487 5.987,5.53 7.163,4.931L5.347,1.367ZM23,29.75L23,13.25L19,13.25L19,29.75L23,29.75ZM12.75,23.5L29.25,23.5L29.25,19.5L12.75,19.5L12.75,23.5Z" fill="#000000"/>
</svg>
