<svg width="148" height="41" viewBox="0 0 148 41" fill="none" xmlns="http://www.w3.org/2000/svg">
    <rect x="0.619995" y="0.0927734" width="147" height="40" rx="5" fill="#141416"/>
    <path fill-rule="evenodd" clip-rule="evenodd" d="M50.9418 7.95945C50.9802 8.80592 50.6771 9.63144 50.1031 10.2434C49.4616 10.9238 48.567 11.2934 47.6427 11.2597C46.225 11.2484 44.9521 10.3704 44.4126 9.03166C43.873 7.69292 44.172 6.15436 45.1712 5.12736C45.8204 4.45055 46.7151 4.07848 47.6427 4.09959C48.1155 4.09798 48.5836 4.19513 49.0183 4.38508C49.423 4.55176 49.7832 4.81396 50.0695 5.1502L49.4768 5.75545C49.0243 5.20579 48.3449 4.90547 47.6427 4.94465C46.9369 4.94111 46.2601 5.23138 45.7684 5.74852C45.2767 6.26567 45.0126 6.96504 45.037 7.68538C45.022 8.77389 45.6498 9.76472 46.6283 10.1969C47.6068 10.629 48.7438 10.4176 49.5103 9.66099C49.8545 9.28018 50.0529 8.78567 50.0695 8.26778H47.6427V7.44556H50.8971C50.9269 7.61516 50.9419 7.78714 50.9418 7.95945ZM56.0638 5.10452H53.0443V7.27427H55.7954V8.09649H53.0443V10.2662H56.0638V11.1113H52.1496V4.25946H56.0638V5.10452ZM59.732 11.1113H58.8709V5.10452H56.9921V4.25946H61.6556V5.10452H59.732V11.1113ZM64.9435 11.1113V4.25946H65.8046V11.1113H64.9435ZM69.6293 11.1113H68.7682V5.10452H66.8894V4.25946H71.497V5.10452H69.6293V11.1113ZM80.2312 10.2206C78.8702 11.6026 76.6716 11.6026 75.3105 10.2206C73.9912 8.7945 73.9912 6.56484 75.3105 5.13878C75.9614 4.4693 76.847 4.09277 77.7709 4.09277C78.6947 4.09277 79.5804 4.4693 80.2312 5.13878C81.5562 6.56255 81.5562 8.79679 80.2312 10.2206ZM75.948 9.64957C76.956 10.6746 78.5858 10.6746 79.5938 9.64957C80.5837 8.5352 80.5837 6.83556 79.5938 5.72119C78.5858 4.69619 76.956 4.69619 75.948 5.72119C74.958 6.83556 74.958 8.5352 75.948 9.64957ZM82.4344 11.1113V4.25946H83.4856L86.7512 9.59247V4.25946H87.6123V11.1113H86.7176L83.3067 5.52705V11.1113H82.4344ZM74.1139 21.1035C75.3838 21.0786 76.6092 21.5812 77.5095 22.4962C78.4097 23.4111 78.9077 24.6601 78.8892 25.9569C78.8892 28.6344 76.7658 30.8061 74.1437 30.8102C71.5216 30.8144 69.3916 28.6495 69.3833 25.9721C69.3751 23.2946 71.4919 21.1161 74.1139 21.1035ZM74.1139 28.9032C74.8557 28.8856 75.5591 28.5629 76.0645 28.0081C76.5698 27.4534 76.8343 26.7137 76.7979 25.9569C76.795 24.7472 76.0683 23.6622 74.9652 23.2209C73.8621 22.7795 72.6069 23.0716 71.8 23.9574C70.9931 24.8431 70.7984 26.1426 71.3091 27.2341C71.8198 28.3257 72.9321 28.9876 74.1139 28.9032ZM63.7021 21.1035H63.6909C64.9609 21.0786 66.1863 21.5812 67.0865 22.4962C67.9868 23.4111 68.4847 24.6601 68.4663 25.9569C68.4663 28.6359 66.3406 30.8082 63.717 30.8103C61.0935 30.8124 58.9645 28.6435 58.9604 25.9645C58.9562 23.2856 61.0786 21.1098 63.7021 21.1035ZM63.7021 28.9032H63.6909C64.4327 28.8856 65.1361 28.5629 65.6415 28.0081C66.1469 27.4534 66.4114 26.7137 66.375 25.9569C66.3717 24.7462 65.6435 23.6607 64.539 23.2204C63.4346 22.7801 62.1787 23.0745 61.373 23.9627C60.5672 24.8509 60.3756 26.152 60.8899 27.2429C61.4042 28.3338 62.5197 28.9924 63.7021 28.9032ZM51.2997 22.5995L58.088 22.5424C58.166 22.9679 58.2035 23.4 58.1999 23.8329C58.2525 25.6095 57.6269 27.3375 56.4553 28.652C55.1163 30.0836 53.2364 30.854 51.2997 30.7646C48.5921 30.8722 46.0439 29.4586 44.6588 27.0806C43.2737 24.7025 43.2737 21.7413 44.6588 19.3632C46.0439 16.9852 48.5921 15.5716 51.2997 15.6792C53.2017 15.6623 55.0293 16.4327 56.3658 17.8147L54.9455 19.265C53.9656 18.2989 52.6504 17.7691 51.2885 17.7918C48.3238 17.7918 45.9205 20.246 45.9205 23.2733C45.9205 26.3006 48.3238 28.7547 51.2885 28.7547C52.6826 28.8115 54.0352 28.264 55.0126 27.2473C55.6611 26.5368 56.0552 25.6232 56.1309 24.6551H51.2997V22.5995ZM101.972 24.1983L102.207 24.7122L95.8433 27.3958C96.2422 28.3233 97.1558 28.9075 98.1471 28.8689C99.1043 28.8714 99.9921 28.3596 100.484 27.5214L102.106 28.6634C101.223 30.0126 99.7361 30.819 98.1471 30.8103C96.884 30.8292 95.6677 30.3228 94.7776 29.4075C93.8875 28.4921 93.4002 27.2465 93.4277 25.9569C93.3504 24.6968 93.7874 23.4602 94.6348 22.5408C95.4823 21.6213 96.6646 21.1011 97.9011 21.1035C99.7552 21.1733 101.375 22.4045 101.972 24.1983ZM95.4855 25.8199L99.7352 24.0156C99.4008 23.3426 98.7056 22.9382 97.9682 22.9878C97.2686 23.02 96.6112 23.3384 96.1441 23.8712C95.6771 24.404 95.4397 25.1063 95.4855 25.8199ZM90.3187 30.5248V16.2502H92.41V30.5248H90.3187ZM86.8966 22.1884V21.389H88.8201V30.0338C88.8201 33.6195 86.7959 35.0927 84.3467 35.0927C82.5006 35.1039 80.8326 33.9699 80.1306 32.2263L81.9535 31.4498C82.3345 32.4673 83.2802 33.1487 84.3467 33.1742C85.9124 33.1742 86.8854 32.1807 86.8854 30.3193V29.6226H86.8183C86.1898 30.363 85.2725 30.7811 84.3132 30.7646C81.7747 30.6389 79.7798 28.5007 79.7798 25.9055C79.7798 23.3104 81.7747 21.1721 84.3132 21.0464C85.2694 21.0452 86.1808 21.4606 86.8183 22.1884H86.8966ZM84.5033 28.9032H84.4921C85.219 28.8747 85.9027 28.5436 86.3843 27.9871C86.866 27.4306 87.1036 26.697 87.042 25.9569C87.0972 25.2203 86.8588 24.492 86.3808 23.9373C85.9029 23.3827 85.2259 23.0485 84.5033 23.0106C83.008 23.1452 81.8611 24.4241 81.8611 25.9569C81.8611 27.4898 83.008 28.7686 84.5033 28.9032ZM106.77 16.2502H111.78C113.404 16.131 114.958 16.9485 115.806 18.3686C116.654 19.7886 116.654 21.5734 115.806 22.9935C114.958 24.4136 113.404 25.231 111.78 25.1119H108.861V30.5248H106.77V16.2502ZM111.769 23.102L111.813 23.1362C113.138 23.1362 114.212 22.0396 114.212 20.6867C114.212 19.3339 113.138 18.2372 111.813 18.2372H108.85V23.102H111.769ZM124.663 21.0464L124.719 21.0807C127.101 21.0807 128.957 22.531 128.957 25.0319V30.5248H126.944V29.3828H126.877C126.295 30.3064 125.266 30.8319 124.193 30.7532C123.323 30.8189 122.463 30.5223 121.81 29.9307C121.157 29.3392 120.766 28.5032 120.726 27.6128C120.726 25.5458 122.751 24.4038 124.753 24.4038C125.513 24.4006 126.262 24.5888 126.933 24.952V24.8035C126.88 24.2549 126.613 23.7511 126.192 23.4054C125.772 23.0597 125.233 22.901 124.697 22.965C123.915 22.8997 123.169 23.3117 122.795 24.0156L120.939 23.2276C121.644 21.8082 123.107 20.9515 124.663 21.0464ZM124.406 28.8689L124.462 28.9032C125.722 28.8718 126.766 27.8976 126.911 26.6193C126.331 26.2885 125.674 26.1229 125.01 26.1396C123.958 26.1396 122.773 26.5165 122.773 27.6585C122.773 28.5149 123.724 28.8689 124.406 28.8689ZM136.294 21.389H138.62L132.894 34.8529H130.713L132.838 30.0452L129.114 21.389H131.351L133.833 27.5785H133.901L136.294 21.389ZM117.494 30.5248V16.2502H119.586V30.5248H117.494ZM35.0068 18.6488C35.2873 18.8109 35.4549 19.1013 35.4549 19.4253C35.4549 19.7492 35.2873 20.0395 35.0068 20.2013L29.9159 23.1397L26.3422 19.6851L30.2525 15.9053L35.0068 18.6488ZM29.4454 15.439L25.6979 19.0621L12.7471 6.54277L24.2135 12.4187L29.4454 15.439ZM12.9375 32.6428L25.6979 20.3081L29.109 23.6058L24.2331 26.4205L12.9375 32.6428ZM11.9821 7.04954L25.0534 19.6849L11.97 32.3323L11.9821 7.04954Z" fill="#F5F9FC"/>
</svg>
