<svg width="20" height="20" viewBox="0 0 20 20" fill="none" xmlns="http://www.w3.org/2000/svg">
	<path d="M14.9995 10.8334L9.16621 5.00003M17.4995 17.5H6.66621M9.11392 16.719L16.3378 9.49512C17.3278 8.50508 17.8228 8.01006 18.0083 7.43924C18.1715 6.93713 18.1715 6.39626 18.0083 5.89415C17.8228 5.32333 17.3278 4.82831 16.3378 3.83827L16.1613 3.66179C15.1713 2.67175 14.6762 2.17673 14.1054 1.99126C13.6033 1.82811 13.0624 1.82811 12.5603 1.99126C11.9895 2.17673 11.4945 2.67175 10.5044 3.66179L3.6613 10.5049C2.67126 11.495 2.17624 11.99 1.99077 12.5608C1.82762 13.0629 1.82762 13.6038 1.99077 14.1059C2.17624 14.6767 2.67126 15.1717 3.6613 16.1618L4.21849 16.719C4.50675 17.0072 4.65087 17.1514 4.81907 17.2544C4.96819 17.3458 5.13076 17.4132 5.30082 17.454C5.49263 17.5 5.69646 17.5 6.10411 17.5H7.2283C7.63596 17.5 7.83978 17.5 8.03159 17.454C8.20165 17.4132 8.36423 17.3458 8.51335 17.2544C8.68154 17.1514 8.82567 17.0072 9.11392 16.719Z" stroke="#738998" stroke-width="2" stroke-linecap="round" stroke-linejoin="round"/>
</svg>
