<svg width="44" height="44" viewBox="0 0 44 44" fill="none" xmlns="http://www.w3.org/2000/svg" xmlns:xlink="http://www.w3.org/1999/xlink">
<path d="M9.274,6.446C8.493,5.665 7.227,5.665 6.446,6.446C5.665,7.227 5.665,8.493 6.446,9.274L9.274,6.446ZM34.726,37.554C35.507,38.335 36.773,38.335 37.554,37.554C38.335,36.773 38.335,35.507 37.554,34.726L34.726,37.554ZM40,22C40,31.941 31.941,40 22,40L22,44C34.15,44 44,34.15 44,22L40,22ZM22,40C12.059,40 4,31.941 4,22L0,22C0,34.15 9.85,44 22,44L22,40ZM4,22C4,12.059 12.059,4 22,4L22,0C9.85,0 0,9.85 0,22L4,22ZM22,4C31.941,4 40,12.059 40,22L44,22C44,9.85 34.15,0 22,0L22,4ZM6.446,9.274L34.726,37.554L37.554,34.726L9.274,6.446L6.446,9.274Z" fill="#EF4D4D"/>
</svg>
