<svg width="14" height="24" viewBox="0 0 14 24" fill="none" xmlns="http://www.w3.org/2000/svg">
    <path d="M1.10085 19V4.45455H7.10938C8.19839 4.45455 9.13826 4.66761 9.92898 5.09375C10.7244 5.51515 11.3376 6.10464 11.7685 6.86222C12.1993 7.61506 12.4148 8.491 12.4148 9.49006C12.4148 10.4938 12.1946 11.3722 11.7543 12.125C11.3187 12.8731 10.696 13.4531 9.88636 13.8651C9.0767 14.277 8.11553 14.483 7.00284 14.483H3.29545V11.7131H6.34943C6.87974 11.7131 7.32244 11.6207 7.67756 11.4361C8.03741 11.2514 8.30966 10.9934 8.49432 10.6619C8.67898 10.3258 8.77131 9.93513 8.77131 9.49006C8.77131 9.04025 8.67898 8.65199 8.49432 8.32528C8.30966 7.99384 8.03741 7.73816 7.67756 7.55824C7.31771 7.37831 6.875 7.28835 6.34943 7.28835H4.61648V19H1.10085Z" fill="white"/>
</svg>
