<svg width="46" height="42" viewBox="0 0 46 42" fill="none" xmlns="http://www.w3.org/2000/svg" xmlns:xlink="http://www.w3.org/1999/xlink">
<path d="M23.999,16C23.999,14.895 23.104,14 21.999,14C20.895,14 20,14.895 20,16L23.999,16ZM20,24C20,25.104 20.895,26 21.999,26C23.104,26 23.999,25.104 23.999,24L20,24ZM21.999,30C20.895,30 20,30.895 20,32C20,33.104 20.895,34 21.999,34L21.999,30ZM22.019,34C23.124,34 24.019,33.104 24.019,32C24.019,30.895 23.124,30 22.019,30L22.019,34ZM19.23,5.783L20.961,6.785L20.961,6.785L19.23,5.783ZM2.78,34.197L4.511,35.199L4.511,35.199L2.78,34.197ZM41.219,34.197L42.949,33.194L42.949,33.194L41.219,34.197ZM24.769,5.783L26.5,4.781L26.5,4.781L24.769,5.783ZM41.707,38.617L40.531,37L40.531,37L41.707,38.617ZM42.52,37.207L44.509,37.415L44.509,37.415L42.52,37.207ZM1.479,37.207L-0.51,37.415L-0.51,37.415L1.479,37.207ZM2.292,38.617L3.468,37L3.468,37L2.292,38.617ZM21.187,3.164L21.999,4.992L21.999,4.992L21.187,3.164ZM22.812,3.164L23.625,1.337L23.625,1.337L22.812,3.164ZM20,16L20,24L23.999,24L23.999,16L20,16ZM21.999,34L22.019,34L22.019,30L21.999,30L21.999,34ZM17.499,4.781L1.05,33.194L4.511,35.199L20.961,6.785L17.499,4.781ZM5.55,41L38.449,41L38.449,37L5.55,37L5.55,41ZM42.949,33.194L26.5,4.781L23.038,6.785L39.488,35.199L42.949,33.194ZM38.449,41C39.32,41 40.112,41.002 40.746,40.944C41.37,40.887 42.174,40.751 42.883,40.235L40.531,37C40.714,36.867 40.799,36.922 40.381,36.96C39.973,36.998 39.399,37 38.449,37L38.449,41ZM39.488,35.199C39.964,36.021 40.249,36.518 40.421,36.89C40.598,37.272 40.507,37.225 40.531,37L44.509,37.415C44.6,36.543 44.315,35.779 44.052,35.211C43.784,34.633 43.386,33.948 42.949,33.194L39.488,35.199ZM42.883,40.235C43.8,39.568 44.391,38.543 44.509,37.415L40.531,37L40.531,37L42.883,40.235ZM1.05,33.194C0.613,33.948 0.215,34.633 -0.053,35.211C-0.316,35.779 -0.601,36.543 -0.51,37.415L3.468,37C3.492,37.225 3.401,37.272 3.577,36.89C3.749,36.518 4.035,36.021 4.511,35.199L1.05,33.194ZM5.55,37C4.6,37 4.026,36.998 3.618,36.96C3.2,36.922 3.285,36.867 3.468,37L1.116,40.235C1.825,40.751 2.629,40.887 3.253,40.944C3.887,41.002 4.679,41 5.55,41L5.55,37ZM-0.51,37.415C-0.392,38.543 0.199,39.568 1.116,40.235L3.468,37L3.468,37L-0.51,37.415ZM20.961,6.785C21.435,5.966 21.723,5.473 21.959,5.14C22.201,4.799 22.205,4.9 21.999,4.992L20.374,1.337C19.575,1.692 19.056,2.318 18.695,2.828C18.328,3.346 17.934,4.03 17.499,4.781L20.961,6.785ZM26.5,4.781C26.065,4.03 25.671,3.346 25.304,2.828C24.943,2.318 24.424,1.692 23.625,1.337L21.999,4.992C21.793,4.9 21.798,4.799 22.04,5.14C22.276,5.473 22.564,5.966 23.038,6.785L26.5,4.781ZM21.999,4.992L21.999,4.992L23.625,1.337C22.59,0.877 21.409,0.877 20.374,1.337L21.999,4.992Z" fill="#FFFFFF"/>
</svg>
