<svg width="29" height="29" viewBox="0 0 29 29" fill="none" xmlns="http://www.w3.org/2000/svg">
    <path d="M14.5 14.5L25.375 14.5M14.5 3.625L14.5 25.375M9.425 3.625H19.575C21.6052 3.625 22.6203 3.625 23.3957 4.0201C24.0778 4.36764 24.6324 4.9222 24.9799 5.60428C25.375 6.37971 25.375 7.39481 25.375 9.425V19.575C25.375 21.6052 25.375 22.6203 24.9799 23.3957C24.6324 24.0778 24.0778 24.6324 23.3957 24.9799C22.6203 25.375 21.6052 25.375 19.575 25.375H9.425C7.39481 25.375 6.37971 25.375 5.60428 24.9799C4.9222 24.6324 4.36764 24.0778 4.0201 23.3957C3.625 22.6203 3.625 21.6052 3.625 19.575V9.425C3.625 7.39481 3.625 6.37971 4.0201 5.60428C4.36764 4.9222 4.9222 4.36764 5.60428 4.0201C6.37971 3.625 7.39481 3.625 9.425 3.625Z" stroke="white" stroke-width="2" stroke-linecap="round" stroke-linejoin="round"/>
</svg>