<svg width="30" height="30" viewBox="0 0 30 30" fill="none" xmlns="http://www.w3.org/2000/svg">
    <circle cx="15" cy="15" r="15" fill="white"/>
    <g clip-path="url(#clip0_2739_911)">
        <path d="M20.125 20.1252H15.125M8.5625 20.4377L12.0308 19.1037C12.2526 19.0184 12.3635 18.9757 12.4673 18.92C12.5595 18.8706 12.6474 18.8135 12.73 18.7493C12.8231 18.6771 12.9071 18.5931 13.0752 18.425L20.125 11.3752C20.8154 10.6848 20.8154 9.56555 20.125 8.87519C19.4347 8.18483 18.3154 8.18483 17.625 8.87519L10.5752 15.925C10.4071 16.0931 10.3231 16.1771 10.2509 16.2702C10.1867 16.3528 10.1296 16.4407 10.0801 16.5329C10.0244 16.6366 9.98178 16.7476 9.89646 16.9694L8.5625 20.4377ZM8.5625 20.4377L9.84883 17.0933C9.94087 16.854 9.9869 16.7343 10.0658 16.6795C10.1348 16.6316 10.2202 16.6135 10.3027 16.6292C10.3971 16.6473 10.4877 16.7379 10.6691 16.9192L12.081 18.3312C12.2623 18.5125 12.353 18.6031 12.371 18.6975C12.3867 18.78 12.3686 18.8654 12.3207 18.9344C12.2659 19.0133 12.1462 19.0593 11.9069 19.1514L8.5625 20.4377Z" stroke="#BBBBBB" stroke-width="2" stroke-linecap="round" stroke-linejoin="round"/>
    </g>
    <defs>
        <clipPath id="clip0_2739_911">
            <rect width="15" height="15" fill="white" transform="translate(7 7)"/>
        </clipPath>
    </defs>
</svg>
