<svg width="44" height="44" viewBox="0 0 44 44" fill="none" xmlns="http://www.w3.org/2000/svg">
    <path d="M22.55 32.55C19.1833 32.55 16.7 31.6 15.1 29.7C13.5333 27.8 12.75 25.2833 12.75 22.15C12.75 18.9833 13.6167 16.4333 15.35 14.5C17.1167 12.5667 19.5667 11.6 22.7 11.6C23.7333 11.6 24.7667 11.7167 25.8 11.95C26.8667 12.1833 27.8833 12.5333 28.85 13L27.35 16.5C26.65 16.1667 25.9 15.9 25.1 15.7C24.3333 15.4667 23.5167 15.35 22.65 15.35C21.05 15.35 19.7833 15.95 18.85 17.15C17.9167 18.35 17.45 20.0333 17.45 22.2C17.45 26.6333 19.2833 28.85 22.95 28.85C23.85 28.85 24.7167 28.75 25.55 28.55C26.3833 28.35 27.2 28.1 28 27.8V31.55C27.1667 31.8833 26.3 32.1333 25.4 32.3C24.5333 32.4667 23.5833 32.55 22.55 32.55ZM22 43.8C19 43.8 16.1833 43.2333 13.55 42.1C10.95 41 8.65 39.4667 6.65 37.5C4.68333 35.5 3.13333 33.2 2 30.6C0.9 27.9667 0.35 25.15 0.35 22.15C0.35 19.15 0.9 16.35 2 13.75C3.13333 11.1167 4.68333 8.81666 6.65 6.85C8.65 4.85 10.95 3.3 13.55 2.2C16.1833 1.06667 19 0.499999 22 0.499999C25 0.499999 27.8 1.06667 30.4 2.2C33.0333 3.3 35.3333 4.85 37.3 6.85C39.3 8.81666 40.85 11.1167 41.95 13.75C43.0833 16.35 43.65 19.15 43.65 22.15C43.65 25.15 43.0833 27.9667 41.95 30.6C40.85 33.2 39.3 35.5 37.3 37.5C35.3333 39.4667 33.0333 41 30.4 42.1C27.8 43.2333 25 43.8 22 43.8ZM22 39.35C24.4 39.35 26.6333 38.9167 28.7 38.05C30.7667 37.15 32.5833 35.9167 34.15 34.35C35.75 32.75 36.9833 30.9167 37.85 28.85C38.75 26.75 39.2 24.5167 39.2 22.15C39.2 19.75 38.75 17.5167 37.85 15.45C36.9833 13.3833 35.75 11.5667 34.15 10C32.5833 8.4 30.75 7.16667 28.65 6.3C26.5833 5.4 24.3667 4.95 22 4.95C19.6 4.95 17.3667 5.4 15.3 6.3C13.2333 7.16667 11.4 8.4 9.8 10C8.23333 11.5667 7 13.4 6.1 15.5C5.23333 17.5667 4.8 19.7833 4.8 22.15C4.8 24.55 5.23333 26.7833 6.1 28.85C7 30.9167 8.23333 32.75 9.8 34.35C11.4 35.9167 13.2333 37.15 15.3 38.05C17.4 38.9167 19.6333 39.35 22 39.35Z" fill="#FFDD85"/>
</svg>
